<svg aria-hidden="true" style="position: absolute; width: 0; height: 0; overflow: hidden;" version="1.1" xmlns="http://www.w3.org/2000/svg" xmlns:xlink="http://www.w3.org/1999/xlink">
<defs>

<symbol id="icon-add" viewBox="0 0 32 32">
<path d="M15.74 7.039c-0.351 0.094-0.62 0.37-0.701 0.719l-0.001 0.007c-0.027 0.115-0.049 1.787-0.049 3.715l-0.001 3.504-3.64 0.016c-3.967 0.016-3.789 0.003-4.073 0.316-0.189 0.209-0.251 0.377-0.251 0.685 0 0.316 0.093 0.545 0.292 0.727 0.297 0.269 0.153 0.259 4.031 0.275l3.637 0.016 0.016 3.637c0.016 3.877 0.005 3.733 0.275 4.031 0.181 0.2 0.411 0.292 0.727 0.292s0.545-0.092 0.727-0.292c0.269-0.297 0.259-0.153 0.275-4.031l0.016-3.637 3.637-0.016c3.877-0.016 3.733-0.005 4.031-0.275 0.2-0.181 0.292-0.411 0.292-0.727s-0.092-0.545-0.292-0.727c-0.297-0.269-0.153-0.259-4.031-0.275l-3.637-0.016-0.016-3.637c-0.016-3.877-0.005-3.733-0.275-4.031-0.223-0.247-0.635-0.361-0.987-0.276z"></path>
</symbol>

<symbol id="icon-arrow-down" viewBox="0 0 32 32">
<path d="M5.067 11.019c-0.403 0.175-0.604 0.484-0.604 0.932 0 0.247 0.028 0.339 0.164 0.533 0.227 0.324 8.995 9.063 9.293 9.261 0.695 0.464 1.221 0.621 2.080 0.621s1.384-0.157 2.080-0.621c0.341-0.228 9.152-9.031 9.317-9.309 0.161-0.272 0.187-0.692 0.056-0.944-0.168-0.326-0.503-0.546-0.888-0.546-0.132 0-0.258 0.026-0.373 0.072l0.007-0.002c-0.14 0.057-1.545 1.425-4.705 4.581-3.096 3.091-4.581 4.537-4.747 4.624-0.203 0.105-0.319 0.125-0.747 0.125s-0.544-0.020-0.747-0.125c-0.165-0.087-1.651-1.533-4.747-4.624-3.16-3.156-4.565-4.524-4.705-4.581-0.107-0.048-0.232-0.077-0.364-0.077-0.134 0-0.261 0.029-0.376 0.082l0.006-0.002z"></path>
</symbol>

<symbol id="icon-logo" viewBox="0 0 32 32">
<path fill="#1f1f1f" style="fill: var(--color1, #1f1f1f)" d="M24 0h-16c-4.418 0-8 3.582-8 8v16c0 4.418 3.582 8 8 8h16c4.418 0 8-3.582 8-8v-16c0-4.418-3.582-8-8-8z"></path>
<path fill="#fff" style="fill: var(--color2, #fff)" d="M13.331 23.027c0.245-1.272 0.453-2.61 0.747-3.949 0.145-0.701-0.032-0.999-0.815-0.946s-1.657 0.027-2.49 0c-0.833-0.027-0.982-0.446-0.502-1.044 2.363-2.918 4.753-5.8 7.134-8.674 0.267-0.326 0.575-0.558 1.014-0.312s0.349 0.549 0.276 0.915c-0.263 1.339-0.48 2.677-0.77 3.989-0.149 0.678 0.045 0.919 0.751 0.892 0.709-0.036 1.419-0.036 2.127 0 0.403 0 0.933-0.21 1.141 0.339s-0.231 0.781-0.453 1.107c-0.905 1.115-1.823 2.229-2.752 3.342-1.361 1.624-2.711 3.242-4.051 4.854-0.263 0.317-0.557 0.571-1.005 0.41s-0.353-0.54-0.353-0.924z"></path>
</symbol>

<symbol id="icon-burger" viewBox="0 0 32 32">
<path d="M3.32 6.91c-0.382 0.191-0.547 0.518-0.547 1.090s0.165 0.899 0.547 1.090l0.274 0.137h24.812l0.274-0.137c0.382-0.191 0.547-0.518 0.547-1.090s-0.165-0.899-0.547-1.090l-0.274-0.137h-24.812l-0.274 0.137zM3.32 14.91c-0.382 0.191-0.547 0.518-0.547 1.090s0.165 0.899 0.547 1.090l0.274 0.137h24.812l0.274-0.137c0.382-0.191 0.547-0.518 0.547-1.090s-0.165-0.899-0.547-1.090l-0.274-0.137h-24.812l-0.274 0.137zM3.32 22.91c-0.382 0.191-0.547 0.518-0.547 1.090s0.165 0.899 0.547 1.090l0.274 0.137h24.812l0.274-0.137c0.382-0.191 0.547-0.518 0.547-1.090s-0.165-0.899-0.547-1.090l-0.274-0.137h-24.812l-0.274 0.137z"></path>
</symbol>

<symbol id="icon-user" viewBox="0 0 32 32">
<path fill="#f6f6f7" style="fill: var(--color1, #f6f6f7)" d="M3.765 0h24.471c2.079 0 3.765 1.686 3.765 3.765v24.471c0 2.079-1.686 3.765-3.765 3.765h-24.471c-2.079 0-3.765-1.686-3.765-3.765v-24.471c0-2.079 1.686-3.765 3.765-3.765z"></path>
<path fill="#fff" style="fill: var(--color2, #fff)" d="M21.49 14.745c0 2.946-2.388 5.333-5.333 5.333s-5.333-2.388-5.333-5.333c0-2.946 2.388-5.333 5.333-5.333s5.333 2.388 5.333 5.333z"></path>
<path fill="#fff" style="fill: var(--color2, #fff)" d="M29.060 32.853c0-1.723-0.339-3.429-0.999-5.020s-1.626-3.038-2.844-4.256c-1.218-1.218-2.664-2.184-4.256-2.844s-3.297-0.999-5.020-0.999c-1.723 0-3.429 0.339-5.020 0.999s-3.038 1.626-4.256 2.844c-1.218 1.218-2.184 2.664-2.844 4.256s-0.999 3.297-0.999 5.020h26.237z"></path>
</symbol>

<symbol id="icon-scroll-down" viewBox="0 0 32 32">
<path d="M16.946 17.867c-0.124 0.125-0.271 0.224-0.434 0.292s-0.337 0.103-0.513 0.103c-0.176 0-0.35-0.035-0.513-0.103s-0.31-0.167-0.434-0.292l-6.107-6.12c-0.124-0.125-0.271-0.224-0.434-0.292s-0.337-0.103-0.513-0.103c-0.176 0-0.35 0.035-0.513 0.103s-0.31 0.167-0.434 0.292c-0.248 0.25-0.388 0.588-0.388 0.94s0.139 0.69 0.388 0.94l6.12 6.12c0.75 0.749 1.767 1.17 2.827 1.17s2.077-0.421 2.827-1.17l6.12-6.12c0.246-0.248 0.385-0.584 0.387-0.933 0.001-0.175-0.033-0.349-0.099-0.512s-0.164-0.31-0.288-0.435c-0.124-0.125-0.272-0.224-0.434-0.292s-0.337-0.103-0.513-0.103c-0.176 0-0.35 0.035-0.513 0.103s-0.31 0.167-0.434 0.292l-6.107 6.12z"></path>
</symbol>

</defs>
</svg>
